<mxfile host="app.diagrams.net" agent="Mozilla/5.0 (Windows NT 10.0; Win64; x64) AppleWebKit/537.36 (KHTML, like Gecko) Chrome/129.0.0.0 Safari/537.36 Edg/129.0.0.0" version="24.7.16" pages="2">
  <diagram name="Business-Context" id="52OkkQuaxZAYGcyde5cU">
    <mxGraphModel dx="1794" dy="853" grid="1" gridSize="10" guides="1" tooltips="1" connect="1" arrows="1" fold="1" page="1" pageScale="1" pageWidth="827" pageHeight="1169" math="0" shadow="0">
      <root>
        <mxCell id="0" />
        <mxCell id="1" parent="0" />
        <mxCell id="iU8PVpw4d1Np7PIMhLw1-1" value="Bibliotheks-BI-System" style="rounded=0;whiteSpace=wrap;html=1;" vertex="1" parent="1">
          <mxGeometry x="220" y="510" width="160" height="70" as="geometry" />
        </mxCell>
        <mxCell id="iU8PVpw4d1Np7PIMhLw1-2" value="Operatives System Bibliothek" style="rounded=0;whiteSpace=wrap;html=1;" vertex="1" parent="1">
          <mxGeometry x="240" y="390" width="120" height="55" as="geometry" />
        </mxCell>
        <mxCell id="iU8PVpw4d1Np7PIMhLw1-3" value="Bib-Verwaltung" style="shape=umlActor;verticalLabelPosition=bottom;verticalAlign=top;html=1;outlineConnect=0;" vertex="1" parent="1">
          <mxGeometry x="285" y="650" width="30" height="60" as="geometry" />
        </mxCell>
        <mxCell id="iU8PVpw4d1Np7PIMhLw1-8" value="" style="endArrow=classic;html=1;rounded=0;entryX=0.5;entryY=1;entryDx=0;entryDy=0;exitX=0.5;exitY=0;exitDx=0;exitDy=0;exitPerimeter=0;" edge="1" parent="1" source="iU8PVpw4d1Np7PIMhLw1-3" target="iU8PVpw4d1Np7PIMhLw1-1">
          <mxGeometry width="50" height="50" relative="1" as="geometry">
            <mxPoint x="300" y="640" as="sourcePoint" />
            <mxPoint x="390" y="620" as="targetPoint" />
          </mxGeometry>
        </mxCell>
        <mxCell id="iU8PVpw4d1Np7PIMhLw1-10" value="" style="endArrow=classic;html=1;rounded=0;exitX=0.5;exitY=1;exitDx=0;exitDy=0;entryX=0.5;entryY=0;entryDx=0;entryDy=0;" edge="1" parent="1" source="iU8PVpw4d1Np7PIMhLw1-2" target="iU8PVpw4d1Np7PIMhLw1-1">
          <mxGeometry width="50" height="50" relative="1" as="geometry">
            <mxPoint x="340" y="500" as="sourcePoint" />
            <mxPoint x="390" y="450" as="targetPoint" />
          </mxGeometry>
        </mxCell>
        <mxCell id="iU8PVpw4d1Np7PIMhLw1-11" value="liefert Daten aus operativem Betrieb" style="edgeLabel;html=1;align=center;verticalAlign=middle;resizable=0;points=[];" vertex="1" connectable="0" parent="iU8PVpw4d1Np7PIMhLw1-10">
          <mxGeometry x="-0.1206" y="1" relative="1" as="geometry">
            <mxPoint x="-1" as="offset" />
          </mxGeometry>
        </mxCell>
        <mxCell id="iU8PVpw4d1Np7PIMhLw1-23" value="" style="edgeStyle=orthogonalEdgeStyle;rounded=0;orthogonalLoop=1;jettySize=auto;html=1;" edge="1" parent="1" source="iU8PVpw4d1Np7PIMhLw1-22" target="iU8PVpw4d1Np7PIMhLw1-2">
          <mxGeometry relative="1" as="geometry" />
        </mxCell>
        <mxCell id="iU8PVpw4d1Np7PIMhLw1-22" value="Biblothekar*in" style="shape=umlActor;verticalLabelPosition=bottom;verticalAlign=top;html=1;outlineConnect=0;" vertex="1" parent="1">
          <mxGeometry x="285" y="280" width="30" height="60" as="geometry" />
        </mxCell>
        <mxCell id="iU8PVpw4d1Np7PIMhLw1-59" value="ruft Reports ab" style="edgeLabel;html=1;align=center;verticalAlign=middle;resizable=0;points=[];" vertex="1" connectable="0" parent="1">
          <mxGeometry x="299.996666666667" y="625" as="geometry" />
        </mxCell>
      </root>
    </mxGraphModel>
  </diagram>
  <diagram id="LZjj0_1kkbw7Y_TWyNi2" name="Building-Block-Lvl1">
    <mxGraphModel dx="1794" dy="853" grid="1" gridSize="10" guides="1" tooltips="1" connect="1" arrows="1" fold="1" page="1" pageScale="1" pageWidth="827" pageHeight="1169" math="0" shadow="0">
      <root>
        <mxCell id="0" />
        <mxCell id="1" parent="0" />
        <mxCell id="VtHuFmHL9AHDz-PLOEuk-1" value="" style="html=1;whiteSpace=wrap;" vertex="1" parent="1">
          <mxGeometry x="69" y="160" width="260" height="200" as="geometry" />
        </mxCell>
        <mxCell id="VtHuFmHL9AHDz-PLOEuk-2" style="edgeStyle=orthogonalEdgeStyle;rounded=0;orthogonalLoop=1;jettySize=auto;html=1;exitX=0.5;exitY=1;exitDx=0;exitDy=0;entryX=0.5;entryY=1;entryDx=0;entryDy=0;" edge="1" parent="1" source="VtHuFmHL9AHDz-PLOEuk-4" target="VtHuFmHL9AHDz-PLOEuk-4">
          <mxGeometry relative="1" as="geometry" />
        </mxCell>
        <mxCell id="VtHuFmHL9AHDz-PLOEuk-3" style="edgeStyle=orthogonalEdgeStyle;rounded=0;orthogonalLoop=1;jettySize=auto;html=1;exitX=0.5;exitY=1;exitDx=0;exitDy=0;entryX=0.5;entryY=0;entryDx=0;entryDy=0;" edge="1" parent="1" source="VtHuFmHL9AHDz-PLOEuk-4" target="VtHuFmHL9AHDz-PLOEuk-6">
          <mxGeometry relative="1" as="geometry" />
        </mxCell>
        <mxCell id="VtHuFmHL9AHDz-PLOEuk-4" value="Operative Datenquelle" style="rounded=0;whiteSpace=wrap;html=1;" vertex="1" parent="1">
          <mxGeometry x="134" y="190" width="130" height="50" as="geometry" />
        </mxCell>
        <mxCell id="VtHuFmHL9AHDz-PLOEuk-5" value="" style="edgeStyle=orthogonalEdgeStyle;rounded=0;orthogonalLoop=1;jettySize=auto;html=1;exitX=1;exitY=0.5;exitDx=0;exitDy=0;entryX=0;entryY=0.5;entryDx=0;entryDy=0;" edge="1" parent="1" source="VtHuFmHL9AHDz-PLOEuk-6" target="VtHuFmHL9AHDz-PLOEuk-12">
          <mxGeometry relative="1" as="geometry" />
        </mxCell>
        <mxCell id="VtHuFmHL9AHDz-PLOEuk-6" value="Kafka" style="rounded=0;whiteSpace=wrap;html=1;" vertex="1" parent="1">
          <mxGeometry x="134" y="260" width="130" height="50" as="geometry" />
        </mxCell>
        <object placeholders="1" c4Name="Bib-BI-System" c4Type="SystemScopeBoundary" c4Application="Date Warehouse" label="&lt;font style=&quot;font-size: 16px&quot;&gt;&lt;b&gt;&lt;div style=&quot;text-align: left&quot;&gt;%c4Name%&lt;/div&gt;&lt;/b&gt;&lt;/font&gt;&lt;div style=&quot;text-align: left&quot;&gt;[%c4Application%]&lt;/div&gt;" id="VtHuFmHL9AHDz-PLOEuk-7">
          <mxCell style="rounded=1;fontSize=11;whiteSpace=wrap;html=1;dashed=1;arcSize=20;fillColor=none;strokeColor=#666666;fontColor=#333333;labelBackgroundColor=none;align=left;verticalAlign=bottom;labelBorderColor=none;spacingTop=0;spacing=10;dashPattern=8 4;metaEdit=1;rotatable=0;perimeter=rectanglePerimeter;noLabel=0;labelPadding=0;allowArrows=0;connectable=0;expand=0;recursiveResize=0;editable=1;pointerEvents=0;absoluteArcSize=1;points=[[0.25,0,0],[0.5,0,0],[0.75,0,0],[1,0.25,0],[1,0.5,0],[1,0.75,0],[0.75,1,0],[0.5,1,0],[0.25,1,0],[0,0.75,0],[0,0.5,0],[0,0.25,0]];" vertex="1" parent="1">
            <mxGeometry x="409" y="90" width="350" height="710" as="geometry" />
          </mxCell>
        </object>
        <mxCell id="VtHuFmHL9AHDz-PLOEuk-8" style="edgeStyle=orthogonalEdgeStyle;rounded=0;orthogonalLoop=1;jettySize=auto;html=1;entryX=0.5;entryY=0;entryDx=0;entryDy=0;" edge="1" parent="1" source="VtHuFmHL9AHDz-PLOEuk-9" target="VtHuFmHL9AHDz-PLOEuk-4">
          <mxGeometry relative="1" as="geometry" />
        </mxCell>
        <mxCell id="VtHuFmHL9AHDz-PLOEuk-9" value="Biblothekar*in" style="shape=umlActor;verticalLabelPosition=bottom;verticalAlign=top;html=1;outlineConnect=0;" vertex="1" parent="1">
          <mxGeometry x="184" y="50" width="30" height="60" as="geometry" />
        </mxCell>
        <mxCell id="VtHuFmHL9AHDz-PLOEuk-10" value="&lt;span style=&quot;text-align: center;&quot;&gt;Operatives System Bibliothek&lt;/span&gt;" style="text;strokeColor=none;fillColor=none;spacingLeft=4;spacingRight=4;overflow=hidden;rotatable=0;points=[[0,0.5],[1,0.5]];portConstraint=eastwest;fontSize=12;whiteSpace=wrap;html=1;" vertex="1" parent="1">
          <mxGeometry x="69" y="320" width="140" height="45" as="geometry" />
        </mxCell>
        <mxCell id="VtHuFmHL9AHDz-PLOEuk-11" style="edgeStyle=orthogonalEdgeStyle;rounded=0;orthogonalLoop=1;jettySize=auto;html=1;exitX=0.5;exitY=1;exitDx=0;exitDy=0;entryX=0.5;entryY=0;entryDx=0;entryDy=0;" edge="1" parent="1" source="VtHuFmHL9AHDz-PLOEuk-12" target="VtHuFmHL9AHDz-PLOEuk-13">
          <mxGeometry relative="1" as="geometry" />
        </mxCell>
        <mxCell id="VtHuFmHL9AHDz-PLOEuk-12" value="Consumer / Staging" style="html=1;whiteSpace=wrap;" vertex="1" parent="1">
          <mxGeometry x="509" y="110" width="140" height="50" as="geometry" />
        </mxCell>
        <mxCell id="VtHuFmHL9AHDz-PLOEuk-13" value="Cleansing" style="html=1;whiteSpace=wrap;" vertex="1" parent="1">
          <mxGeometry x="509" y="190" width="140" height="50" as="geometry" />
        </mxCell>
        <mxCell id="VtHuFmHL9AHDz-PLOEuk-14" style="edgeStyle=orthogonalEdgeStyle;rounded=0;orthogonalLoop=1;jettySize=auto;html=1;" edge="1" parent="1" source="VtHuFmHL9AHDz-PLOEuk-15">
          <mxGeometry relative="1" as="geometry">
            <mxPoint x="579" y="430" as="targetPoint" />
          </mxGeometry>
        </mxCell>
        <object placeholders="1" c4Name="Core" c4Type="Container" c4Technology="MySQL-DB" c4Description="Historisierter Speicher aller Daten" label="&lt;font style=&quot;font-size: 16px&quot;&gt;&lt;b&gt;%c4Name%&lt;/b&gt;&lt;/font&gt;&lt;div&gt;[%c4Type%:&amp;nbsp;%c4Technology%]&lt;/div&gt;&lt;br&gt;&lt;div&gt;&lt;font style=&quot;font-size: 11px&quot;&gt;&lt;font color=&quot;#E6E6E6&quot;&gt;%c4Description%&lt;/font&gt;&lt;/div&gt;" id="VtHuFmHL9AHDz-PLOEuk-15">
          <mxCell style="shape=cylinder3;size=21.142868768601147;whiteSpace=wrap;html=1;boundedLbl=1;rounded=0;labelBackgroundColor=none;fillColor=#23A2D9;fontSize=12;fontColor=#ffffff;align=center;strokeColor=#0E7DAD;metaEdit=1;points=[[0.5,0,0],[1,0.25,0],[1,0.5,0],[1,0.75,0],[0.5,1,0],[0,0.75,0],[0,0.5,0],[0,0.25,0]];resizable=0;" vertex="1" parent="1">
            <mxGeometry x="459" y="264" width="240" height="120" as="geometry" />
          </mxCell>
        </object>
        <mxCell id="VtHuFmHL9AHDz-PLOEuk-16" style="edgeStyle=orthogonalEdgeStyle;rounded=0;orthogonalLoop=1;jettySize=auto;html=1;exitX=0.5;exitY=1;exitDx=0;exitDy=0;entryX=0.5;entryY=0;entryDx=0;entryDy=0;entryPerimeter=0;" edge="1" parent="1" source="VtHuFmHL9AHDz-PLOEuk-13" target="VtHuFmHL9AHDz-PLOEuk-15">
          <mxGeometry relative="1" as="geometry" />
        </mxCell>
        <mxCell id="VtHuFmHL9AHDz-PLOEuk-17" style="edgeStyle=orthogonalEdgeStyle;rounded=0;orthogonalLoop=1;jettySize=auto;html=1;entryX=0.5;entryY=0;entryDx=0;entryDy=0;entryPerimeter=0;" edge="1" parent="1" source="VtHuFmHL9AHDz-PLOEuk-18" target="VtHuFmHL9AHDz-PLOEuk-19">
          <mxGeometry relative="1" as="geometry">
            <mxPoint x="584" y="620" as="targetPoint" />
          </mxGeometry>
        </mxCell>
        <object placeholders="1" c4Name="Mart Database" c4Type="Container" c4Technology="MySQLDB" c4Description="Datenbank mit MARTs für Abfragen" label="&lt;font style=&quot;font-size: 16px&quot;&gt;&lt;b&gt;%c4Name%&lt;/b&gt;&lt;/font&gt;&lt;div&gt;[%c4Type%:&amp;nbsp;%c4Technology%]&lt;/div&gt;&lt;br&gt;&lt;div&gt;&lt;font style=&quot;font-size: 11px&quot;&gt;&lt;font color=&quot;#E6E6E6&quot;&gt;%c4Description%&lt;/font&gt;&lt;/div&gt;" id="VtHuFmHL9AHDz-PLOEuk-18">
          <mxCell style="shape=cylinder3;size=15;whiteSpace=wrap;html=1;boundedLbl=1;rounded=0;labelBackgroundColor=none;fillColor=#23A2D9;fontSize=12;fontColor=#ffffff;align=center;strokeColor=#0E7DAD;metaEdit=1;points=[[0.5,0,0],[1,0.25,0],[1,0.5,0],[1,0.75,0],[0.5,1,0],[0,0.75,0],[0,0.5,0],[0,0.25,0]];resizable=0;" vertex="1" parent="1">
            <mxGeometry x="464" y="430" width="240" height="120" as="geometry" />
          </mxCell>
        </object>
        <object placeholders="1" c4Name="Dashboards" c4Type="Container" c4Technology="PowerBI" c4Description="BI Software with Dashboards" label="&lt;font style=&quot;font-size: 16px&quot;&gt;&lt;b&gt;%c4Name%&lt;/b&gt;&lt;/font&gt;&lt;div&gt;[%c4Type%:&amp;nbsp;%c4Technology%]&lt;/div&gt;&lt;br&gt;&lt;div&gt;&lt;font style=&quot;font-size: 11px&quot;&gt;&lt;font color=&quot;#E6E6E6&quot;&gt;%c4Description%&lt;/font&gt;&lt;/div&gt;" id="VtHuFmHL9AHDz-PLOEuk-19">
          <mxCell style="shape=mxgraph.c4.webBrowserContainer2;whiteSpace=wrap;html=1;boundedLbl=1;rounded=0;labelBackgroundColor=none;strokeColor=#118ACD;fillColor=#23A2D9;strokeColor=#118ACD;strokeColor2=#0E7DAD;fontSize=12;fontColor=#ffffff;align=center;metaEdit=1;points=[[0.5,0,0],[1,0.25,0],[1,0.5,0],[1,0.75,0],[0.5,1,0],[0,0.75,0],[0,0.5,0],[0,0.25,0]];resizable=0;" vertex="1" parent="1">
            <mxGeometry x="464" y="580" width="240" height="160" as="geometry" />
          </mxCell>
        </object>
        <mxCell id="VtHuFmHL9AHDz-PLOEuk-20" style="edgeStyle=orthogonalEdgeStyle;rounded=0;orthogonalLoop=1;jettySize=auto;html=1;entryX=0.224;entryY=0.014;entryDx=0;entryDy=0;entryPerimeter=0;" edge="1" parent="1" source="VtHuFmHL9AHDz-PLOEuk-15" target="VtHuFmHL9AHDz-PLOEuk-18">
          <mxGeometry relative="1" as="geometry" />
        </mxCell>
        <mxCell id="VtHuFmHL9AHDz-PLOEuk-21" style="edgeStyle=orthogonalEdgeStyle;rounded=0;orthogonalLoop=1;jettySize=auto;html=1;entryX=0.768;entryY=0.025;entryDx=0;entryDy=0;entryPerimeter=0;" edge="1" parent="1" source="VtHuFmHL9AHDz-PLOEuk-15" target="VtHuFmHL9AHDz-PLOEuk-18">
          <mxGeometry relative="1" as="geometry" />
        </mxCell>
        <mxCell id="VtHuFmHL9AHDz-PLOEuk-22" value="Bib-Verwaltung" style="shape=umlActor;verticalLabelPosition=bottom;verticalAlign=top;html=1;outlineConnect=0;" vertex="1" parent="1">
          <mxGeometry x="176" y="640" width="30" height="60" as="geometry" />
        </mxCell>
        <mxCell id="VtHuFmHL9AHDz-PLOEuk-23" style="edgeStyle=orthogonalEdgeStyle;rounded=0;orthogonalLoop=1;jettySize=auto;html=1;exitX=1;exitY=0.3333333333333333;exitDx=0;exitDy=0;exitPerimeter=0;entryX=0;entryY=0.5;entryDx=0;entryDy=0;entryPerimeter=0;" edge="1" parent="1" source="VtHuFmHL9AHDz-PLOEuk-22" target="VtHuFmHL9AHDz-PLOEuk-19">
          <mxGeometry relative="1" as="geometry" />
        </mxCell>
        <mxCell id="VtHuFmHL9AHDz-PLOEuk-24" value="ruft Reports ab" style="edgeLabel;html=1;align=center;verticalAlign=middle;resizable=0;points=[];" vertex="1" connectable="0" parent="VtHuFmHL9AHDz-PLOEuk-23">
          <mxGeometry x="-0.1925" relative="1" as="geometry">
            <mxPoint as="offset" />
          </mxGeometry>
        </mxCell>
        <mxCell id="VtHuFmHL9AHDz-PLOEuk-25" value="&lt;span style=&quot;font-size: 11px; font-weight: 400; background-color: rgb(255, 255, 255);&quot;&gt;liefert Daten aus operativem Betrieb&lt;/span&gt;" style="text;align=center;fontStyle=1;verticalAlign=middle;spacingLeft=3;spacingRight=3;strokeColor=none;rotatable=0;points=[[0,0.5],[1,0.5]];portConstraint=eastwest;html=1;" vertex="1" parent="1">
          <mxGeometry x="349" y="202" width="80" height="26" as="geometry" />
        </mxCell>
      </root>
    </mxGraphModel>
  </diagram>
</mxfile>
